<svg width="176" height="64" viewBox="0 0 176 64" fill="none" xmlns="http://www.w3.org/2000/svg">
<path d="M38.5243 47.4C35.2285 49.8196 31.928 51.5848 29.3333 52.447C21.1667 49.7333 6 38.0666 6 25.2333C6 18.1458 11.7458 12.4 18.8333 12.4C23.1733 12.4 27.0117 14.5548 29.3333 17.853C30.5167 16.1674 32.0888 14.7917 33.9166 13.8425C35.7443 12.8933 37.7738 12.3985 39.8333 12.4C46.9209 12.4 52.6667 18.1458 52.6667 25.2333C52.6667 27.2715 52.284 29.2793 51.6085 31.2265" stroke="#F2F2F2" stroke-width="3" stroke-linecap="round" stroke-linejoin="round"/>
<path d="M32.8334 38.0666H37.5L41 33.4L44.5 42.7333L47.9557 38.0666H52.6667" stroke="#F2F2F2" stroke-width="3" stroke-linecap="round" stroke-linejoin="round"/>
<path d="M84.6814 20.748C84.6814 19.0493 84.2614 17.7427 83.4214 16.828C82.5814 15.9133 81.4614 15.456 80.0614 15.456C79.2774 15.456 78.6614 15.484 78.2134 15.54C77.784 15.596 77.4387 15.6613 77.1774 15.736V24.92C77.4947 25.1813 77.952 25.4333 78.5494 25.676C79.1467 25.9187 79.8 26.04 80.5094 26.04C81.256 26.04 81.8907 25.9093 82.4134 25.648C82.9547 25.368 83.3934 24.9947 83.7294 24.528C84.0654 24.0427 84.308 23.4827 84.4574 22.848C84.6067 22.1947 84.6814 21.4947 84.6814 20.748ZM87.3974 20.748C87.3974 21.8493 87.248 22.8667 86.9494 23.8C86.6694 24.7333 86.2494 25.536 85.6894 26.208C85.1294 26.88 84.4387 27.4027 83.6174 27.776C82.8147 28.1493 81.8907 28.336 80.8454 28.336C80.0054 28.336 79.2587 28.224 78.6054 28C77.9707 27.776 77.4947 27.5613 77.1774 27.356V33.18H74.5734V13.888C75.1894 13.7387 75.9547 13.58 76.8694 13.412C77.8027 13.2253 78.876 13.132 80.0894 13.132C81.2094 13.132 82.2174 13.3093 83.1134 13.664C84.0094 14.0187 84.7747 14.5227 85.4094 15.176C86.044 15.8293 86.5294 16.632 86.8654 17.584C87.22 18.5173 87.3974 19.572 87.3974 20.748ZM102.654 27.58C102.056 27.7293 101.263 27.888 100.274 28.056C99.303 28.224 98.1737 28.308 96.8857 28.308C95.7657 28.308 94.823 28.1493 94.0577 27.832C93.2923 27.496 92.6763 27.0293 92.2097 26.432C91.743 25.8347 91.407 25.1347 91.2017 24.332C90.9963 23.5107 90.8937 22.6053 90.8937 21.616V13.44H93.4977V21.056C93.4977 22.8293 93.7777 24.0987 94.3377 24.864C94.8977 25.6293 95.8403 26.012 97.1657 26.012C97.4457 26.012 97.735 26.0027 98.0337 25.984C98.3323 25.9653 98.6123 25.9467 98.8737 25.928C99.135 25.8907 99.3683 25.8627 99.5737 25.844C99.7977 25.8067 99.9563 25.7693 100.05 25.732V13.44H102.654V27.58ZM111.508 28.28C109.902 28.2427 108.764 27.8973 108.092 27.244C107.42 26.5907 107.084 25.5733 107.084 24.192V6.72L109.688 6.272V23.772C109.688 24.2013 109.725 24.556 109.8 24.836C109.874 25.116 109.996 25.34 110.164 25.508C110.332 25.676 110.556 25.8067 110.836 25.9C111.116 25.9747 111.461 26.04 111.872 26.096L111.508 28.28ZM118.184 26.124C119.248 26.124 120.032 25.984 120.536 25.704C121.059 25.424 121.32 24.976 121.32 24.36C121.32 23.7253 121.068 23.2213 120.564 22.848C120.06 22.4747 119.229 22.0547 118.072 21.588C117.512 21.364 116.971 21.14 116.448 20.916C115.944 20.6733 115.505 20.3933 115.132 20.076C114.759 19.7587 114.46 19.376 114.236 18.928C114.012 18.48 113.9 17.9293 113.9 17.276C113.9 15.988 114.376 14.9707 115.328 14.224C116.28 13.4587 117.577 13.076 119.22 13.076C119.631 13.076 120.041 13.104 120.452 13.16C120.863 13.1973 121.245 13.2533 121.6 13.328C121.955 13.384 122.263 13.4493 122.524 13.524C122.804 13.5987 123.019 13.664 123.168 13.72L122.692 15.96C122.412 15.8107 121.973 15.6613 121.376 15.512C120.779 15.344 120.06 15.26 119.22 15.26C118.492 15.26 117.857 15.4093 117.316 15.708C116.775 15.988 116.504 16.436 116.504 17.052C116.504 17.3693 116.56 17.6493 116.672 17.892C116.803 18.1347 116.989 18.3587 117.232 18.564C117.493 18.7507 117.811 18.928 118.184 19.096C118.557 19.264 119.005 19.4413 119.528 19.628C120.219 19.8893 120.835 20.1507 121.376 20.412C121.917 20.6547 122.375 20.944 122.748 21.28C123.14 21.616 123.439 22.0267 123.644 22.512C123.849 22.9787 123.952 23.5573 123.952 24.248C123.952 25.592 123.448 26.6093 122.44 27.3C121.451 27.9907 120.032 28.336 118.184 28.336C116.896 28.336 115.888 28.224 115.16 28C114.432 27.7947 113.937 27.636 113.676 27.524L114.152 25.284C114.451 25.396 114.927 25.564 115.58 25.788C116.233 26.012 117.101 26.124 118.184 26.124ZM140.144 20.72C140.144 21.8773 139.976 22.9227 139.64 23.856C139.304 24.7893 138.828 25.592 138.212 26.264C137.615 26.936 136.896 27.4587 136.056 27.832C135.216 28.1867 134.301 28.364 133.312 28.364C132.323 28.364 131.408 28.1867 130.568 27.832C129.728 27.4587 129 26.936 128.384 26.264C127.787 25.592 127.32 24.7893 126.984 23.856C126.648 22.9227 126.48 21.8773 126.48 20.72C126.48 19.5813 126.648 18.5453 126.984 17.612C127.32 16.66 127.787 15.848 128.384 15.176C129 14.504 129.728 13.9907 130.568 13.636C131.408 13.2627 132.323 13.076 133.312 13.076C134.301 13.076 135.216 13.2627 136.056 13.636C136.896 13.9907 137.615 14.504 138.212 15.176C138.828 15.848 139.304 16.66 139.64 17.612C139.976 18.5453 140.144 19.5813 140.144 20.72ZM137.428 20.72C137.428 19.0773 137.055 17.78 136.308 16.828C135.58 15.8573 134.581 15.372 133.312 15.372C132.043 15.372 131.035 15.8573 130.288 16.828C129.56 17.78 129.196 19.0773 129.196 20.72C129.196 22.3627 129.56 23.6693 130.288 24.64C131.035 25.592 132.043 26.068 133.312 26.068C134.581 26.068 135.58 25.592 136.308 24.64C137.055 23.6693 137.428 22.3627 137.428 20.72ZM77.9614 51.124C79.0254 51.124 79.8094 50.984 80.3134 50.704C80.836 50.424 81.0974 49.976 81.0974 49.36C81.0974 48.7253 80.8454 48.2213 80.3414 47.848C79.8374 47.4747 79.0067 47.0547 77.8494 46.588C77.2894 46.364 76.748 46.14 76.2254 45.916C75.7214 45.6733 75.2827 45.3933 74.9094 45.076C74.536 44.7587 74.2374 44.376 74.0134 43.928C73.7894 43.48 73.6774 42.9293 73.6774 42.276C73.6774 40.988 74.1534 39.9707 75.1054 39.224C76.0574 38.4587 77.3547 38.076 78.9974 38.076C79.408 38.076 79.8187 38.104 80.2294 38.16C80.64 38.1973 81.0227 38.2533 81.3774 38.328C81.732 38.384 82.04 38.4493 82.3014 38.524C82.5814 38.5987 82.796 38.664 82.9454 38.72L82.4694 40.96C82.1894 40.8107 81.7507 40.6613 81.1534 40.512C80.556 40.344 79.8374 40.26 78.9974 40.26C78.2694 40.26 77.6347 40.4093 77.0934 40.708C76.552 40.988 76.2814 41.436 76.2814 42.052C76.2814 42.3693 76.3374 42.6493 76.4494 42.892C76.58 43.1347 76.7667 43.3587 77.0094 43.564C77.2707 43.7507 77.588 43.928 77.9614 44.096C78.3347 44.264 78.7827 44.4413 79.3054 44.628C79.996 44.8893 80.612 45.1507 81.1534 45.412C81.6947 45.6547 82.152 45.944 82.5254 46.28C82.9174 46.616 83.216 47.0267 83.4214 47.512C83.6267 47.9787 83.7294 48.5573 83.7294 49.248C83.7294 50.592 83.2254 51.6093 82.2174 52.3C81.228 52.9907 79.8094 53.336 77.9614 53.336C76.6734 53.336 75.6654 53.224 74.9374 53C74.2094 52.7947 73.7147 52.636 73.4534 52.524L73.9294 50.284C74.228 50.396 74.704 50.564 75.3574 50.788C76.0107 51.012 76.8787 51.124 77.9614 51.124ZM86.2575 45.748C86.2575 44.46 86.4441 43.34 86.8175 42.388C87.1908 41.4173 87.6855 40.6147 88.3015 39.98C88.9175 39.3453 89.6268 38.8693 90.4295 38.552C91.2321 38.2347 92.0535 38.076 92.8935 38.076C94.8535 38.076 96.3561 38.692 97.4015 39.924C98.4468 41.1373 98.9695 42.9947 98.9695 45.496C98.9695 45.608 98.9695 45.7573 98.9695 45.944C98.9695 46.112 98.9601 46.2707 98.9415 46.42H88.9735C89.0855 47.932 89.5241 49.08 90.2895 49.864C91.0548 50.648 92.2495 51.04 93.8735 51.04C94.7881 51.04 95.5535 50.9653 96.1695 50.816C96.8041 50.648 97.2801 50.4893 97.5975 50.34L97.9615 52.524C97.6441 52.692 97.0841 52.8693 96.2815 53.056C95.4975 53.2427 94.6015 53.336 93.5935 53.336C92.3241 53.336 91.2228 53.1493 90.2895 52.776C89.3748 52.384 88.6188 51.852 88.0215 51.18C87.4241 50.508 86.9761 49.7147 86.6775 48.8C86.3975 47.8667 86.2575 46.8493 86.2575 45.748ZM96.2535 44.32C96.2721 43.144 95.9735 42.1827 95.3575 41.436C94.7601 40.6707 93.9295 40.288 92.8655 40.288C92.2681 40.288 91.7361 40.4093 91.2695 40.652C90.8215 40.876 90.4388 41.1747 90.1215 41.548C89.8041 41.9213 89.5521 42.3507 89.3655 42.836C89.1975 43.3213 89.0855 43.816 89.0295 44.32H96.2535ZM111.838 51.544C111.614 51.6933 111.175 51.8893 110.522 52.132C109.887 52.356 109.141 52.468 108.282 52.468C107.405 52.468 106.574 52.328 105.79 52.048C105.025 51.768 104.353 51.3387 103.774 50.76C103.195 50.1627 102.738 49.4253 102.402 48.548C102.066 47.6707 101.898 46.6253 101.898 45.412C101.898 44.348 102.057 43.3773 102.374 42.5C102.691 41.604 103.149 40.8387 103.746 40.204C104.362 39.5507 105.109 39.0467 105.986 38.692C106.863 38.3187 107.853 38.132 108.954 38.132C110.167 38.132 111.222 38.2253 112.118 38.412C113.033 38.58 113.798 38.7387 114.414 38.888V51.88C114.414 54.12 113.835 55.744 112.678 56.752C111.521 57.76 109.766 58.264 107.414 58.264C106.499 58.264 105.631 58.1893 104.81 58.04C104.007 57.8907 103.307 57.7133 102.71 57.508L103.186 55.24C103.709 55.4453 104.343 55.6227 105.09 55.772C105.855 55.94 106.649 56.024 107.47 56.024C109.019 56.024 110.13 55.716 110.802 55.1C111.493 54.484 111.838 53.504 111.838 52.16V51.544ZM111.81 40.736C111.549 40.6613 111.194 40.596 110.746 40.54C110.317 40.4653 109.729 40.428 108.982 40.428C107.582 40.428 106.499 40.8853 105.734 41.8C104.987 42.7147 104.614 43.928 104.614 45.44C104.614 46.28 104.717 46.9987 104.922 47.596C105.146 48.1933 105.435 48.688 105.79 49.08C106.163 49.472 106.583 49.7613 107.05 49.948C107.535 50.1347 108.03 50.228 108.534 50.228C109.225 50.228 109.859 50.1347 110.438 49.948C111.017 49.7427 111.474 49.5093 111.81 49.248V40.736ZM130.49 52.58C129.892 52.7293 129.099 52.888 128.11 53.056C127.139 53.224 126.01 53.308 124.722 53.308C123.602 53.308 122.659 53.1493 121.894 52.832C121.128 52.496 120.512 52.0293 120.046 51.432C119.579 50.8347 119.243 50.1347 119.038 49.332C118.832 48.5107 118.73 47.6053 118.73 46.616V38.44H121.334V46.056C121.334 47.8293 121.614 49.0987 122.174 49.864C122.734 50.6293 123.676 51.012 125.002 51.012C125.282 51.012 125.571 51.0027 125.87 50.984C126.168 50.9653 126.448 50.9467 126.71 50.928C126.971 50.8907 127.204 50.8627 127.41 50.844C127.634 50.8067 127.792 50.7693 127.886 50.732V38.44H130.49V52.58ZM140.352 38.132C140.576 38.132 140.828 38.1507 141.108 38.188C141.406 38.2067 141.696 38.244 141.976 38.3C142.256 38.3373 142.508 38.384 142.732 38.44C142.974 38.4773 143.152 38.5147 143.264 38.552L142.816 40.82C142.61 40.7453 142.265 40.6613 141.78 40.568C141.313 40.456 140.706 40.4 139.96 40.4C139.474 40.4 138.989 40.456 138.504 40.568C138.037 40.6613 137.729 40.7267 137.58 40.764V53H134.976V39.056C135.592 38.832 136.357 38.6267 137.272 38.44C138.186 38.2347 139.213 38.132 140.352 38.132ZM158.628 45.72C158.628 46.8773 158.46 47.9227 158.124 48.856C157.788 49.7893 157.312 50.592 156.696 51.264C156.099 51.936 155.38 52.4587 154.54 52.832C153.7 53.1867 152.786 53.364 151.796 53.364C150.807 53.364 149.892 53.1867 149.052 52.832C148.212 52.4587 147.484 51.936 146.868 51.264C146.271 50.592 145.804 49.7893 145.468 48.856C145.132 47.9227 144.964 46.8773 144.964 45.72C144.964 44.5813 145.132 43.5453 145.468 42.612C145.804 41.66 146.271 40.848 146.868 40.176C147.484 39.504 148.212 38.9907 149.052 38.636C149.892 38.2627 150.807 38.076 151.796 38.076C152.786 38.076 153.7 38.2627 154.54 38.636C155.38 38.9907 156.099 39.504 156.696 40.176C157.312 40.848 157.788 41.66 158.124 42.612C158.46 43.5453 158.628 44.5813 158.628 45.72ZM155.912 45.72C155.912 44.0773 155.539 42.78 154.792 41.828C154.064 40.8573 153.066 40.372 151.796 40.372C150.527 40.372 149.519 40.8573 148.772 41.828C148.044 42.78 147.68 44.0773 147.68 45.72C147.68 47.3627 148.044 48.6693 148.772 49.64C149.519 50.592 150.527 51.068 151.796 51.068C153.066 51.068 154.064 50.592 154.792 49.64C155.539 48.6693 155.912 47.3627 155.912 45.72Z" fill="#F2F2F2"/>
</svg>
