<svg width="64" height="64" viewBox="0 0 64 64" fill="none" xmlns="http://www.w3.org/2000/svg">
<path d="M38.5652 31.8333C36.211 33.5617 33.8535 34.8225 32.0002 35.4383C26.1668 33.5 15.3335 25.1667 15.3335 16C15.3335 10.9375 19.4377 6.83333 24.5002 6.83333C27.6002 6.83333 30.3418 8.3725 32.0002 10.7283C32.8454 9.52433 33.9684 8.54174 35.2739 7.86374C36.5794 7.18573 38.0291 6.83229 39.5002 6.83333C44.5627 6.83333 48.6668 10.9375 48.6668 16C48.6668 17.4558 48.3935 18.89 47.911 20.2808" stroke="url(#paint0_linear_20_30)" stroke-width="3" stroke-linecap="round" stroke-linejoin="round"/>
<path d="M34.5 25.1667H37.8333L40.3333 21.8333L42.8333 28.5L45.3017 25.1667H48.6667" stroke="url(#paint1_linear_20_30)" stroke-width="3" stroke-linecap="round" stroke-linejoin="round"/>
<path d="M22.4561 45.892C22.4561 45.164 22.2761 44.604 21.9161 44.212C21.5561 43.82 21.0761 43.624 20.4761 43.624C20.1401 43.624 19.8761 43.636 19.6841 43.66C19.5001 43.684 19.3521 43.712 19.2401 43.744V47.68C19.3761 47.792 19.5721 47.9 19.8281 48.004C20.0841 48.108 20.3641 48.16 20.6681 48.16C20.9881 48.16 21.2601 48.104 21.4841 47.992C21.7161 47.872 21.9041 47.712 22.0481 47.512C22.1921 47.304 22.2961 47.064 22.3601 46.792C22.4241 46.512 22.4561 46.212 22.4561 45.892ZM23.6201 45.892C23.6201 46.364 23.5561 46.8 23.4281 47.2C23.3081 47.6 23.1281 47.944 22.8881 48.232C22.6481 48.52 22.3521 48.744 22.0001 48.904C21.6561 49.064 21.2601 49.144 20.8121 49.144C20.4521 49.144 20.1321 49.096 19.8521 49C19.5801 48.904 19.3761 48.812 19.2401 48.724V51.22H18.1241V42.952C18.3881 42.888 18.7161 42.82 19.1081 42.748C19.5081 42.668 19.9681 42.628 20.4881 42.628C20.9681 42.628 21.4001 42.704 21.7841 42.856C22.1681 43.008 22.4961 43.224 22.7681 43.504C23.0401 43.784 23.2481 44.128 23.3921 44.536C23.5441 44.936 23.6201 45.388 23.6201 45.892ZM30.1585 48.82C29.9025 48.884 29.5625 48.952 29.1385 49.024C28.7225 49.096 28.2385 49.132 27.6865 49.132C27.2065 49.132 26.8025 49.064 26.4745 48.928C26.1465 48.784 25.8825 48.584 25.6825 48.328C25.4825 48.072 25.3385 47.772 25.2505 47.428C25.1625 47.076 25.1185 46.688 25.1185 46.264V42.76H26.2345V46.024C26.2345 46.784 26.3545 47.328 26.5945 47.656C26.8345 47.984 27.2385 48.148 27.8065 48.148C27.9265 48.148 28.0505 48.144 28.1785 48.136C28.3065 48.128 28.4265 48.12 28.5385 48.112C28.6505 48.096 28.7505 48.084 28.8385 48.076C28.9345 48.06 29.0025 48.044 29.0425 48.028V42.76H30.1585V48.82ZM33.9531 49.12C33.2651 49.104 32.7771 48.956 32.4891 48.676C32.2011 48.396 32.0571 47.96 32.0571 47.368V39.88L33.1731 39.688V47.188C33.1731 47.372 33.1891 47.524 33.2211 47.644C33.2531 47.764 33.3051 47.86 33.3771 47.932C33.4491 48.004 33.5451 48.06 33.6651 48.1C33.7851 48.132 33.9331 48.16 34.1091 48.184L33.9531 49.12ZM36.8143 48.196C37.2703 48.196 37.6063 48.136 37.8223 48.016C38.0463 47.896 38.1583 47.704 38.1583 47.44C38.1583 47.168 38.0503 46.952 37.8343 46.792C37.6183 46.632 37.2623 46.452 36.7663 46.252C36.5263 46.156 36.2943 46.06 36.0703 45.964C35.8543 45.86 35.6663 45.74 35.5063 45.604C35.3463 45.468 35.2183 45.304 35.1223 45.112C35.0263 44.92 34.9783 44.684 34.9783 44.404C34.9783 43.852 35.1823 43.416 35.5903 43.096C35.9983 42.768 36.5543 42.604 37.2583 42.604C37.4343 42.604 37.6103 42.616 37.7863 42.64C37.9623 42.656 38.1263 42.68 38.2783 42.712C38.4303 42.736 38.5623 42.764 38.6743 42.796C38.7943 42.828 38.8863 42.856 38.9503 42.88L38.7463 43.84C38.6263 43.776 38.4383 43.712 38.1823 43.648C37.9263 43.576 37.6183 43.54 37.2583 43.54C36.9463 43.54 36.6743 43.604 36.4423 43.732C36.2103 43.852 36.0943 44.044 36.0943 44.308C36.0943 44.444 36.1183 44.564 36.1663 44.668C36.2223 44.772 36.3023 44.868 36.4063 44.956C36.5183 45.036 36.6543 45.112 36.8143 45.184C36.9743 45.256 37.1663 45.332 37.3903 45.412C37.6863 45.524 37.9503 45.636 38.1823 45.748C38.4143 45.852 38.6103 45.976 38.7703 46.12C38.9383 46.264 39.0663 46.44 39.1543 46.648C39.2423 46.848 39.2863 47.096 39.2863 47.392C39.2863 47.968 39.0703 48.404 38.6383 48.7C38.2143 48.996 37.6063 49.144 36.8143 49.144C36.2623 49.144 35.8303 49.096 35.5183 49C35.2063 48.912 34.9943 48.844 34.8823 48.796L35.0863 47.836C35.2143 47.884 35.4183 47.956 35.6983 48.052C35.9783 48.148 36.3503 48.196 36.8143 48.196ZM46.2258 45.88C46.2258 46.376 46.1538 46.824 46.0098 47.224C45.8658 47.624 45.6618 47.968 45.3978 48.256C45.1418 48.544 44.8338 48.768 44.4738 48.928C44.1138 49.08 43.7218 49.156 43.2978 49.156C42.8738 49.156 42.4818 49.08 42.1218 48.928C41.7618 48.768 41.4498 48.544 41.1858 48.256C40.9298 47.968 40.7298 47.624 40.5858 47.224C40.4418 46.824 40.3698 46.376 40.3698 45.88C40.3698 45.392 40.4418 44.948 40.5858 44.548C40.7298 44.14 40.9298 43.792 41.1858 43.504C41.4498 43.216 41.7618 42.996 42.1218 42.844C42.4818 42.684 42.8738 42.604 43.2978 42.604C43.7218 42.604 44.1138 42.684 44.4738 42.844C44.8338 42.996 45.1418 43.216 45.3978 43.504C45.6618 43.792 45.8658 44.14 46.0098 44.548C46.1538 44.948 46.2258 45.392 46.2258 45.88ZM45.0618 45.88C45.0618 45.176 44.9018 44.62 44.5818 44.212C44.2698 43.796 43.8418 43.588 43.2978 43.588C42.7538 43.588 42.3218 43.796 42.0018 44.212C41.6898 44.62 41.5338 45.176 41.5338 45.88C41.5338 46.584 41.6898 47.144 42.0018 47.56C42.3218 47.968 42.7538 48.172 43.2978 48.172C43.8418 48.172 44.2698 47.968 44.5818 47.56C44.9018 47.144 45.0618 46.584 45.0618 45.88ZM15.6151 59.196C16.0711 59.196 16.4071 59.136 16.6231 59.016C16.8471 58.896 16.9591 58.704 16.9591 58.44C16.9591 58.168 16.8511 57.952 16.6351 57.792C16.4191 57.632 16.0631 57.452 15.5671 57.252C15.3271 57.156 15.0951 57.06 14.8711 56.964C14.6551 56.86 14.4671 56.74 14.3071 56.604C14.1471 56.468 14.0191 56.304 13.9231 56.112C13.8271 55.92 13.7791 55.684 13.7791 55.404C13.7791 54.852 13.9831 54.416 14.3911 54.096C14.7991 53.768 15.3551 53.604 16.0591 53.604C16.2351 53.604 16.4111 53.616 16.5871 53.64C16.7631 53.656 16.9271 53.68 17.0791 53.712C17.2311 53.736 17.3631 53.764 17.4751 53.796C17.5951 53.828 17.6871 53.856 17.7511 53.88L17.5471 54.84C17.4271 54.776 17.2391 54.712 16.9831 54.648C16.7271 54.576 16.4191 54.54 16.0591 54.54C15.7471 54.54 15.4751 54.604 15.2431 54.732C15.0111 54.852 14.8951 55.044 14.8951 55.308C14.8951 55.444 14.9191 55.564 14.9671 55.668C15.0231 55.772 15.1031 55.868 15.2071 55.956C15.3191 56.036 15.4551 56.112 15.6151 56.184C15.7751 56.256 15.9671 56.332 16.1911 56.412C16.4871 56.524 16.7511 56.636 16.9831 56.748C17.2151 56.852 17.4111 56.976 17.5711 57.12C17.7391 57.264 17.8671 57.44 17.9551 57.648C18.0431 57.848 18.0871 58.096 18.0871 58.392C18.0871 58.968 17.8711 59.404 17.4391 59.7C17.0151 59.996 16.4071 60.144 15.6151 60.144C15.0631 60.144 14.6311 60.096 14.3191 60C14.0071 59.912 13.7951 59.844 13.6831 59.796L13.8871 58.836C14.0151 58.884 14.2191 58.956 14.4991 59.052C14.7791 59.148 15.1511 59.196 15.6151 59.196ZM19.1706 56.892C19.1706 56.34 19.2506 55.86 19.4106 55.452C19.5706 55.036 19.7826 54.692 20.0466 54.42C20.3106 54.148 20.6146 53.944 20.9586 53.808C21.3026 53.672 21.6546 53.604 22.0146 53.604C22.8546 53.604 23.4986 53.868 23.9466 54.396C24.3946 54.916 24.6186 55.712 24.6186 56.784C24.6186 56.832 24.6186 56.896 24.6186 56.976C24.6186 57.048 24.6146 57.116 24.6066 57.18H20.3346C20.3826 57.828 20.5706 58.32 20.8986 58.656C21.2266 58.992 21.7386 59.16 22.4346 59.16C22.8266 59.16 23.1546 59.128 23.4186 59.064C23.6906 58.992 23.8946 58.924 24.0306 58.86L24.1866 59.796C24.0506 59.868 23.8106 59.944 23.4666 60.024C23.1306 60.104 22.7466 60.144 22.3146 60.144C21.7706 60.144 21.2986 60.064 20.8986 59.904C20.5066 59.736 20.1826 59.508 19.9266 59.22C19.6706 58.932 19.4786 58.592 19.3506 58.2C19.2306 57.8 19.1706 57.364 19.1706 56.892ZM23.4546 56.28C23.4626 55.776 23.3346 55.364 23.0706 55.044C22.8146 54.716 22.4586 54.552 22.0026 54.552C21.7466 54.552 21.5186 54.604 21.3186 54.708C21.1266 54.804 20.9626 54.932 20.8266 55.092C20.6906 55.252 20.5826 55.436 20.5026 55.644C20.4306 55.852 20.3826 56.064 20.3586 56.28H23.4546ZM30.1337 59.376C30.0377 59.44 29.8497 59.524 29.5697 59.628C29.2977 59.724 28.9777 59.772 28.6097 59.772C28.2337 59.772 27.8777 59.712 27.5417 59.592C27.2137 59.472 26.9257 59.288 26.6777 59.04C26.4297 58.784 26.2337 58.468 26.0897 58.092C25.9457 57.716 25.8737 57.268 25.8737 56.748C25.8737 56.292 25.9417 55.876 26.0777 55.5C26.2137 55.116 26.4097 54.788 26.6657 54.516C26.9297 54.236 27.2497 54.02 27.6257 53.868C28.0017 53.708 28.4257 53.628 28.8977 53.628C29.4177 53.628 29.8697 53.668 30.2537 53.748C30.6457 53.82 30.9737 53.888 31.2377 53.952V59.52C31.2377 60.48 30.9897 61.176 30.4937 61.608C29.9977 62.04 29.2457 62.256 28.2377 62.256C27.8457 62.256 27.4737 62.224 27.1217 62.16C26.7777 62.096 26.4777 62.02 26.2217 61.932L26.4257 60.96C26.6497 61.048 26.9217 61.124 27.2417 61.188C27.5697 61.26 27.9097 61.296 28.2617 61.296C28.9257 61.296 29.4017 61.164 29.6897 60.9C29.9857 60.636 30.1337 60.216 30.1337 59.64V59.376ZM30.1217 54.744C30.0097 54.712 29.8577 54.684 29.6657 54.66C29.4817 54.628 29.2297 54.612 28.9097 54.612C28.3097 54.612 27.8457 54.808 27.5177 55.2C27.1977 55.592 27.0377 56.112 27.0377 56.76C27.0377 57.12 27.0817 57.428 27.1697 57.684C27.2657 57.94 27.3897 58.152 27.5417 58.32C27.7017 58.488 27.8817 58.612 28.0817 58.692C28.2897 58.772 28.5017 58.812 28.7177 58.812C29.0137 58.812 29.2857 58.772 29.5337 58.692C29.7817 58.604 29.9777 58.504 30.1217 58.392V54.744ZM38.1272 59.82C37.8712 59.884 37.5312 59.952 37.1072 60.024C36.6912 60.096 36.2072 60.132 35.6552 60.132C35.1752 60.132 34.7712 60.064 34.4432 59.928C34.1152 59.784 33.8512 59.584 33.6512 59.328C33.4512 59.072 33.3072 58.772 33.2192 58.428C33.1312 58.076 33.0872 57.688 33.0872 57.264V53.76H34.2032V57.024C34.2032 57.784 34.3232 58.328 34.5632 58.656C34.8032 58.984 35.2072 59.148 35.7752 59.148C35.8952 59.148 36.0192 59.144 36.1472 59.136C36.2752 59.128 36.3952 59.12 36.5072 59.112C36.6192 59.096 36.7192 59.084 36.8072 59.076C36.9032 59.06 36.9712 59.044 37.0112 59.028V53.76H38.1272V59.82ZM42.3538 53.628C42.4498 53.628 42.5578 53.636 42.6778 53.652C42.8058 53.66 42.9298 53.676 43.0498 53.7C43.1698 53.716 43.2778 53.736 43.3738 53.76C43.4778 53.776 43.5538 53.792 43.6018 53.808L43.4098 54.78C43.3218 54.748 43.1738 54.712 42.9658 54.672C42.7658 54.624 42.5058 54.6 42.1858 54.6C41.9778 54.6 41.7698 54.624 41.5618 54.672C41.3618 54.712 41.2298 54.74 41.1658 54.756V60H40.0498V54.024C40.3138 53.928 40.6418 53.84 41.0338 53.76C41.4258 53.672 41.8658 53.628 42.3538 53.628ZM50.1868 56.88C50.1868 57.376 50.1148 57.824 49.9708 58.224C49.8268 58.624 49.6228 58.968 49.3588 59.256C49.1028 59.544 48.7948 59.768 48.4348 59.928C48.0748 60.08 47.6828 60.156 47.2588 60.156C46.8348 60.156 46.4428 60.08 46.0828 59.928C45.7228 59.768 45.4108 59.544 45.1468 59.256C44.8908 58.968 44.6908 58.624 44.5468 58.224C44.4028 57.824 44.3308 57.376 44.3308 56.88C44.3308 56.392 44.4028 55.948 44.5468 55.548C44.6908 55.14 44.8908 54.792 45.1468 54.504C45.4108 54.216 45.7228 53.996 46.0828 53.844C46.4428 53.684 46.8348 53.604 47.2588 53.604C47.6828 53.604 48.0748 53.684 48.4348 53.844C48.7948 53.996 49.1028 54.216 49.3588 54.504C49.6228 54.792 49.8268 55.14 49.9708 55.548C50.1148 55.948 50.1868 56.392 50.1868 56.88ZM49.0228 56.88C49.0228 56.176 48.8628 55.62 48.5428 55.212C48.2308 54.796 47.8028 54.588 47.2588 54.588C46.7148 54.588 46.2828 54.796 45.9628 55.212C45.6508 55.62 45.4948 56.176 45.4948 56.88C45.4948 57.584 45.6508 58.144 45.9628 58.56C46.2828 58.968 46.7148 59.172 47.2588 59.172C47.8028 59.172 48.2308 58.968 48.5428 58.56C48.8628 58.144 49.0228 57.584 49.0228 56.88Z" fill="white"/>
<defs>
<linearGradient id="paint0_linear_20_30" x1="15.3335" y1="21.1358" x2="48.6668" y2="21.1358" gradientUnits="userSpaceOnUse">
<stop stop-color="#1D976C"/>
<stop offset="1" stop-color="#93F9B9"/>
</linearGradient>
<linearGradient id="paint1_linear_20_30" x1="34.5" y1="25.1667" x2="48.6667" y2="25.1667" gradientUnits="userSpaceOnUse">
<stop stop-color="#1D976C"/>
<stop offset="1" stop-color="#93F9B9"/>
</linearGradient>
</defs>
</svg>
