<svg
    width="16"
    height="16"
    viewBox="0 0 16 16"
    fill="none"
    xmlns="http://www.w3.org/2000/svg"
>
    <path
        d="M12.6667 7.33334H3.33333C2.59695 7.33334 2 7.93029 2 8.66667V13.3333C2 14.0697 2.59695 14.6667 3.33333 14.6667H12.6667C13.403 14.6667 14 14.0697 14 13.3333V8.66667C14 7.93029 13.403 7.33334 12.6667 7.33334Z"
        stroke="#353436"
        stroke-linecap="round"
        stroke-linejoin="round"
    />
    <path
        d="M4.66669 7.33334V4.66667C4.66669 3.78261 5.01788 2.93477 5.643 2.30965C6.26812 1.68453 7.11597 1.33334 8.00002 1.33334C8.88408 1.33334 9.73192 1.68453 10.357 2.30965C10.9822 2.93477 11.3334 3.78261 11.3334 4.66667V7.33334"
        stroke="#353436"
        stroke-linecap="round"
        stroke-linejoin="round"
    />
</svg>