<svg width="200" height="72" viewBox="0 0 200 72" fill="none" xmlns="http://www.w3.org/2000/svg">
<g clip-path="url(#clip0_201_2)">
<path d="M55.13 58C50.4216 61.4566 45.7066 63.9783 42 65.21C30.3333 61.3333 8.66663 44.6667 8.66663 26.3333C8.66663 16.2083 16.875 8 27 8C33.2 8 38.6833 11.0783 42 15.79C43.6905 13.382 45.9364 11.4168 48.5474 10.0608C51.1585 8.70481 54.0578 7.99792 57 8C67.125 8 75.3333 16.2083 75.3333 26.3333C75.3333 29.245 74.7867 32.1133 73.8216 34.895" stroke="#F2F2F2" stroke-width="3" stroke-linecap="round" stroke-linejoin="round"/>
<path d="M47 44.6667H53.6667L58.6667 38L63.6667 51.3333L68.6033 44.6667H75.3333" stroke="#F2F2F2" stroke-width="3" stroke-linecap="round" stroke-linejoin="round"/>
<path d="M112.348 24.748C112.348 23.0493 111.928 21.7427 111.088 20.828C110.248 19.9133 109.128 19.456 107.728 19.456C106.944 19.456 106.328 19.484 105.88 19.54C105.451 19.596 105.105 19.6613 104.844 19.736V28.92C105.161 29.1813 105.619 29.4333 106.216 29.676C106.813 29.9187 107.467 30.04 108.176 30.04C108.923 30.04 109.557 29.9093 110.08 29.648C110.621 29.368 111.06 28.9947 111.396 28.528C111.732 28.0427 111.975 27.4827 112.124 26.848C112.273 26.1947 112.348 25.4947 112.348 24.748ZM115.064 24.748C115.064 25.8493 114.915 26.8667 114.616 27.8C114.336 28.7333 113.916 29.536 113.356 30.208C112.796 30.88 112.105 31.4027 111.284 31.776C110.481 32.1493 109.557 32.336 108.512 32.336C107.672 32.336 106.925 32.224 106.272 32C105.637 31.776 105.161 31.5613 104.844 31.356V37.18H102.24V17.888C102.856 17.7387 103.621 17.58 104.536 17.412C105.469 17.2253 106.543 17.132 107.756 17.132C108.876 17.132 109.884 17.3093 110.78 17.664C111.676 18.0187 112.441 18.5227 113.076 19.176C113.711 19.8293 114.196 20.632 114.532 21.584C114.887 22.5173 115.064 23.572 115.064 24.748ZM130.32 31.58C129.723 31.7293 128.93 31.888 127.94 32.056C126.97 32.224 125.84 32.308 124.552 32.308C123.432 32.308 122.49 32.1493 121.724 31.832C120.959 31.496 120.343 31.0293 119.876 30.432C119.41 29.8347 119.074 29.1347 118.868 28.332C118.663 27.5107 118.56 26.6053 118.56 25.616V17.44H121.164V25.056C121.164 26.8293 121.444 28.0987 122.004 28.864C122.564 29.6293 123.507 30.012 124.832 30.012C125.112 30.012 125.402 30.0027 125.7 29.984C125.999 29.9653 126.279 29.9467 126.54 29.928C126.802 29.8907 127.035 29.8627 127.24 29.844C127.464 29.8067 127.623 29.7693 127.716 29.732V17.44H130.32V31.58ZM139.174 32.28C137.569 32.2427 136.43 31.8973 135.758 31.244C135.086 30.5907 134.75 29.5733 134.75 28.192V10.72L137.354 10.272V27.772C137.354 28.2013 137.392 28.556 137.466 28.836C137.541 29.116 137.662 29.34 137.83 29.508C137.998 29.676 138.222 29.8067 138.502 29.9C138.782 29.9747 139.128 30.04 139.538 30.096L139.174 32.28ZM145.851 30.124C146.915 30.124 147.699 29.984 148.203 29.704C148.725 29.424 148.987 28.976 148.987 28.36C148.987 27.7253 148.735 27.2213 148.231 26.848C147.727 26.4747 146.896 26.0547 145.739 25.588C145.179 25.364 144.637 25.14 144.115 24.916C143.611 24.6733 143.172 24.3933 142.799 24.076C142.425 23.7587 142.127 23.376 141.903 22.928C141.679 22.48 141.567 21.9293 141.567 21.276C141.567 19.988 142.043 18.9707 142.995 18.224C143.947 17.4587 145.244 17.076 146.887 17.076C147.297 17.076 147.708 17.104 148.119 17.16C148.529 17.1973 148.912 17.2533 149.267 17.328C149.621 17.384 149.929 17.4493 150.191 17.524C150.471 17.5987 150.685 17.664 150.835 17.72L150.359 19.96C150.079 19.8107 149.64 19.6613 149.043 19.512C148.445 19.344 147.727 19.26 146.887 19.26C146.159 19.26 145.524 19.4093 144.983 19.708C144.441 19.988 144.171 20.436 144.171 21.052C144.171 21.3693 144.227 21.6493 144.339 21.892C144.469 22.1347 144.656 22.3587 144.899 22.564C145.16 22.7507 145.477 22.928 145.851 23.096C146.224 23.264 146.672 23.4413 147.195 23.628C147.885 23.8893 148.501 24.1507 149.043 24.412C149.584 24.6547 150.041 24.944 150.415 25.28C150.807 25.616 151.105 26.0267 151.311 26.512C151.516 26.9787 151.619 27.5573 151.619 28.248C151.619 29.592 151.115 30.6093 150.107 31.3C149.117 31.9907 147.699 32.336 145.851 32.336C144.563 32.336 143.555 32.224 142.827 32C142.099 31.7947 141.604 31.636 141.343 31.524L141.819 29.284C142.117 29.396 142.593 29.564 143.247 29.788C143.9 30.012 144.768 30.124 145.851 30.124ZM167.811 24.72C167.811 25.8773 167.643 26.9227 167.307 27.856C166.971 28.7893 166.495 29.592 165.879 30.264C165.281 30.936 164.563 31.4587 163.723 31.832C162.883 32.1867 161.968 32.364 160.979 32.364C159.989 32.364 159.075 32.1867 158.235 31.832C157.395 31.4587 156.667 30.936 156.051 30.264C155.453 29.592 154.987 28.7893 154.651 27.856C154.315 26.9227 154.147 25.8773 154.147 24.72C154.147 23.5813 154.315 22.5453 154.651 21.612C154.987 20.66 155.453 19.848 156.051 19.176C156.667 18.504 157.395 17.9907 158.235 17.636C159.075 17.2627 159.989 17.076 160.979 17.076C161.968 17.076 162.883 17.2627 163.723 17.636C164.563 17.9907 165.281 18.504 165.879 19.176C166.495 19.848 166.971 20.66 167.307 21.612C167.643 22.5453 167.811 23.5813 167.811 24.72ZM165.095 24.72C165.095 23.0773 164.721 21.78 163.975 20.828C163.247 19.8573 162.248 19.372 160.979 19.372C159.709 19.372 158.701 19.8573 157.955 20.828C157.227 21.78 156.863 23.0773 156.863 24.72C156.863 26.3627 157.227 27.6693 157.955 28.64C158.701 29.592 159.709 30.068 160.979 30.068C162.248 30.068 163.247 29.592 163.975 28.64C164.721 27.6693 165.095 26.3627 165.095 24.72ZM105.628 55.124C106.692 55.124 107.476 54.984 107.98 54.704C108.503 54.424 108.764 53.976 108.764 53.36C108.764 52.7253 108.512 52.2213 108.008 51.848C107.504 51.4747 106.673 51.0547 105.516 50.588C104.956 50.364 104.415 50.14 103.892 49.916C103.388 49.6733 102.949 49.3933 102.576 49.076C102.203 48.7587 101.904 48.376 101.68 47.928C101.456 47.48 101.344 46.9293 101.344 46.276C101.344 44.988 101.82 43.9707 102.772 43.224C103.724 42.4587 105.021 42.076 106.664 42.076C107.075 42.076 107.485 42.104 107.896 42.16C108.307 42.1973 108.689 42.2533 109.044 42.328C109.399 42.384 109.707 42.4493 109.968 42.524C110.248 42.5987 110.463 42.664 110.612 42.72L110.136 44.96C109.856 44.8107 109.417 44.6613 108.82 44.512C108.223 44.344 107.504 44.26 106.664 44.26C105.936 44.26 105.301 44.4093 104.76 44.708C104.219 44.988 103.948 45.436 103.948 46.052C103.948 46.3693 104.004 46.6493 104.116 46.892C104.247 47.1347 104.433 47.3587 104.676 47.564C104.937 47.7507 105.255 47.928 105.628 48.096C106.001 48.264 106.449 48.4413 106.972 48.628C107.663 48.8893 108.279 49.1507 108.82 49.412C109.361 49.6547 109.819 49.944 110.192 50.28C110.584 50.616 110.883 51.0267 111.088 51.512C111.293 51.9787 111.396 52.5573 111.396 53.248C111.396 54.592 110.892 55.6093 109.884 56.3C108.895 56.9907 107.476 57.336 105.628 57.336C104.34 57.336 103.332 57.224 102.604 57C101.876 56.7947 101.381 56.636 101.12 56.524L101.596 54.284C101.895 54.396 102.371 54.564 103.024 54.788C103.677 55.012 104.545 55.124 105.628 55.124ZM113.924 49.748C113.924 48.46 114.111 47.34 114.484 46.388C114.857 45.4173 115.352 44.6147 115.968 43.98C116.584 43.3453 117.293 42.8693 118.096 42.552C118.899 42.2347 119.72 42.076 120.56 42.076C122.52 42.076 124.023 42.692 125.068 43.924C126.113 45.1373 126.636 46.9947 126.636 49.496C126.636 49.608 126.636 49.7573 126.636 49.944C126.636 50.112 126.627 50.2707 126.608 50.42H116.64C116.752 51.932 117.191 53.08 117.956 53.864C118.721 54.648 119.916 55.04 121.54 55.04C122.455 55.04 123.22 54.9653 123.836 54.816C124.471 54.648 124.947 54.4893 125.264 54.34L125.628 56.524C125.311 56.692 124.751 56.8693 123.948 57.056C123.164 57.2427 122.268 57.336 121.26 57.336C119.991 57.336 118.889 57.1493 117.956 56.776C117.041 56.384 116.285 55.852 115.688 55.18C115.091 54.508 114.643 53.7147 114.344 52.8C114.064 51.8667 113.924 50.8493 113.924 49.748ZM123.92 48.32C123.939 47.144 123.64 46.1827 123.024 45.436C122.427 44.6707 121.596 44.288 120.532 44.288C119.935 44.288 119.403 44.4093 118.936 44.652C118.488 44.876 118.105 45.1747 117.788 45.548C117.471 45.9213 117.219 46.3507 117.032 46.836C116.864 47.3213 116.752 47.816 116.696 48.32H123.92ZM139.505 55.544C139.281 55.6933 138.842 55.8893 138.189 56.132C137.554 56.356 136.807 56.468 135.949 56.468C135.071 56.468 134.241 56.328 133.457 56.048C132.691 55.768 132.019 55.3387 131.441 54.76C130.862 54.1627 130.405 53.4253 130.069 52.548C129.733 51.6707 129.565 50.6253 129.565 49.412C129.565 48.348 129.723 47.3773 130.041 46.5C130.358 45.604 130.815 44.8387 131.413 44.204C132.029 43.5507 132.775 43.0467 133.653 42.692C134.53 42.3187 135.519 42.132 136.621 42.132C137.834 42.132 138.889 42.2253 139.785 42.412C140.699 42.58 141.465 42.7387 142.081 42.888V55.88C142.081 58.12 141.502 59.744 140.345 60.752C139.187 61.76 137.433 62.264 135.081 62.264C134.166 62.264 133.298 62.1893 132.477 62.04C131.674 61.8907 130.974 61.7133 130.377 61.508L130.853 59.24C131.375 59.4453 132.01 59.6227 132.757 59.772C133.522 59.94 134.315 60.024 135.137 60.024C136.686 60.024 137.797 59.716 138.469 59.1C139.159 58.484 139.505 57.504 139.505 56.16V55.544ZM139.477 44.736C139.215 44.6613 138.861 44.596 138.413 44.54C137.983 44.4653 137.395 44.428 136.649 44.428C135.249 44.428 134.166 44.8853 133.401 45.8C132.654 46.7147 132.281 47.928 132.281 49.44C132.281 50.28 132.383 50.9987 132.589 51.596C132.813 52.1933 133.102 52.688 133.457 53.08C133.83 53.472 134.25 53.7613 134.717 53.948C135.202 54.1347 135.697 54.228 136.201 54.228C136.891 54.228 137.526 54.1347 138.105 53.948C138.683 53.7427 139.141 53.5093 139.477 53.248V44.736ZM158.156 56.58C157.559 56.7293 156.766 56.888 155.776 57.056C154.806 57.224 153.676 57.308 152.388 57.308C151.268 57.308 150.326 57.1493 149.56 56.832C148.795 56.496 148.179 56.0293 147.712 55.432C147.246 54.8347 146.91 54.1347 146.704 53.332C146.499 52.5107 146.396 51.6053 146.396 50.616V42.44H149V50.056C149 51.8293 149.28 53.0987 149.84 53.864C150.4 54.6293 151.343 55.012 152.668 55.012C152.948 55.012 153.238 55.0027 153.536 54.984C153.835 54.9653 154.115 54.9467 154.376 54.928C154.638 54.8907 154.871 54.8627 155.076 54.844C155.3 54.8067 155.459 54.7693 155.552 54.732V42.44H158.156V56.58ZM168.018 42.132C168.242 42.132 168.494 42.1507 168.774 42.188C169.073 42.2067 169.362 42.244 169.642 42.3C169.922 42.3373 170.174 42.384 170.398 42.44C170.641 42.4773 170.818 42.5147 170.93 42.552L170.482 44.82C170.277 44.7453 169.932 44.6613 169.446 44.568C168.98 44.456 168.373 44.4 167.626 44.4C167.141 44.4 166.656 44.456 166.17 44.568C165.704 44.6613 165.396 44.7267 165.246 44.764V57H162.642V43.056C163.258 42.832 164.024 42.6267 164.938 42.44C165.853 42.2347 166.88 42.132 168.018 42.132ZM186.295 49.72C186.295 50.8773 186.127 51.9227 185.791 52.856C185.455 53.7893 184.979 54.592 184.363 55.264C183.766 55.936 183.047 56.4587 182.207 56.832C181.367 57.1867 180.452 57.364 179.463 57.364C178.474 57.364 177.559 57.1867 176.719 56.832C175.879 56.4587 175.151 55.936 174.535 55.264C173.938 54.592 173.471 53.7893 173.135 52.856C172.799 51.9227 172.631 50.8773 172.631 49.72C172.631 48.5813 172.799 47.5453 173.135 46.612C173.471 45.66 173.938 44.848 174.535 44.176C175.151 43.504 175.879 42.9907 176.719 42.636C177.559 42.2627 178.474 42.076 179.463 42.076C180.452 42.076 181.367 42.2627 182.207 42.636C183.047 42.9907 183.766 43.504 184.363 44.176C184.979 44.848 185.455 45.66 185.791 46.612C186.127 47.5453 186.295 48.5813 186.295 49.72ZM183.579 49.72C183.579 48.0773 183.206 46.78 182.459 45.828C181.731 44.8573 180.732 44.372 179.463 44.372C178.194 44.372 177.186 44.8573 176.439 45.828C175.711 46.78 175.347 48.0773 175.347 49.72C175.347 51.3627 175.711 52.6693 176.439 53.64C177.186 54.592 178.194 55.068 179.463 55.068C180.732 55.068 181.731 54.592 182.459 53.64C183.206 52.6693 183.579 51.3627 183.579 49.72Z" fill="#F2F2F2"/>
</g>
<defs>
<clipPath id="clip0_201_2">
<rect width="200" height="72" fill="white"/>
</clipPath>
</defs>
</svg>
