<svg width="176" height="64" viewBox="0 0 176 64" fill="none" xmlns="http://www.w3.org/2000/svg">
<path d="M42.5041 49.3333C38.7374 52.0987 34.9654 54.116 32.0001 55.1013C22.6667 52 5.33337 38.6667 5.33337 24C5.33337 15.9 11.9 9.33335 20 9.33335C24.9601 9.33335 29.3467 11.796 32.0001 15.5653C33.3525 13.639 35.1492 12.0668 37.238 10.982C39.3269 9.89719 41.6463 9.33168 44.0001 9.33335C52.1001 9.33335 58.6667 15.9 58.6667 24C58.6667 26.3293 58.2294 28.624 57.4574 30.8493" stroke="#F2F2F2" stroke-width="4" stroke-linecap="round" stroke-linejoin="round"/>
<path d="M36 38.6667H41.3333L45.3333 33.3333L49.3333 44L53.2827 38.6667H58.6667" stroke="#F2F2F2" stroke-width="4" stroke-linecap="round" stroke-linejoin="round"/>
<path d="M92.348 20.748C92.348 19.0493 91.928 17.7427 91.088 16.828C90.248 15.9133 89.128 15.456 87.728 15.456C86.944 15.456 86.328 15.484 85.88 15.54C85.4507 15.596 85.1053 15.6613 84.844 15.736V24.92C85.1613 25.1813 85.6187 25.4333 86.216 25.676C86.8133 25.9187 87.4667 26.04 88.176 26.04C88.9227 26.04 89.5573 25.9093 90.08 25.648C90.6213 25.368 91.06 24.9947 91.396 24.528C91.732 24.0427 91.9747 23.4827 92.124 22.848C92.2733 22.1947 92.348 21.4947 92.348 20.748ZM95.064 20.748C95.064 21.8493 94.9147 22.8667 94.616 23.8C94.336 24.7333 93.916 25.536 93.356 26.208C92.796 26.88 92.1053 27.4027 91.284 27.776C90.4813 28.1493 89.5573 28.336 88.512 28.336C87.672 28.336 86.9253 28.224 86.272 28C85.6373 27.776 85.1613 27.5613 84.844 27.356V33.18H82.24V13.888C82.856 13.7387 83.6213 13.58 84.536 13.412C85.4693 13.2253 86.5427 13.132 87.756 13.132C88.876 13.132 89.884 13.3093 90.78 13.664C91.676 14.0187 92.4413 14.5227 93.076 15.176C93.7107 15.8293 94.196 16.632 94.532 17.584C94.8867 18.5173 95.064 19.572 95.064 20.748ZM110.32 27.58C109.723 27.7293 108.93 27.888 107.94 28.056C106.97 28.224 105.84 28.308 104.552 28.308C103.432 28.308 102.49 28.1493 101.724 27.832C100.959 27.496 100.343 27.0293 99.8763 26.432C99.4096 25.8347 99.0736 25.1347 98.8683 24.332C98.6629 23.5107 98.5603 22.6053 98.5603 21.616V13.44H101.164V21.056C101.164 22.8293 101.444 24.0987 102.004 24.864C102.564 25.6293 103.507 26.012 104.832 26.012C105.112 26.012 105.402 26.0027 105.7 25.984C105.999 25.9653 106.279 25.9467 106.54 25.928C106.802 25.8907 107.035 25.8627 107.24 25.844C107.464 25.8067 107.623 25.7693 107.716 25.732V13.44H110.32V27.58ZM119.174 28.28C117.569 28.2427 116.43 27.8973 115.758 27.244C115.086 26.5907 114.75 25.5733 114.75 24.192V6.72L117.354 6.272V23.772C117.354 24.2013 117.392 24.556 117.466 24.836C117.541 25.116 117.662 25.34 117.83 25.508C117.998 25.676 118.222 25.8067 118.502 25.9C118.782 25.9747 119.128 26.04 119.538 26.096L119.174 28.28ZM125.851 26.124C126.915 26.124 127.699 25.984 128.203 25.704C128.725 25.424 128.987 24.976 128.987 24.36C128.987 23.7253 128.735 23.2213 128.231 22.848C127.727 22.4747 126.896 22.0547 125.739 21.588C125.179 21.364 124.637 21.14 124.115 20.916C123.611 20.6733 123.172 20.3933 122.799 20.076C122.425 19.7587 122.127 19.376 121.903 18.928C121.679 18.48 121.567 17.9293 121.567 17.276C121.567 15.988 122.043 14.9707 122.995 14.224C123.947 13.4587 125.244 13.076 126.887 13.076C127.297 13.076 127.708 13.104 128.119 13.16C128.529 13.1973 128.912 13.2533 129.267 13.328C129.621 13.384 129.929 13.4493 130.191 13.524C130.471 13.5987 130.685 13.664 130.835 13.72L130.359 15.96C130.079 15.8107 129.64 15.6613 129.043 15.512C128.445 15.344 127.727 15.26 126.887 15.26C126.159 15.26 125.524 15.4093 124.983 15.708C124.441 15.988 124.171 16.436 124.171 17.052C124.171 17.3693 124.227 17.6493 124.339 17.892C124.469 18.1347 124.656 18.3587 124.899 18.564C125.16 18.7507 125.477 18.928 125.851 19.096C126.224 19.264 126.672 19.4413 127.195 19.628C127.885 19.8893 128.501 20.1507 129.043 20.412C129.584 20.6547 130.041 20.944 130.415 21.28C130.807 21.616 131.105 22.0267 131.311 22.512C131.516 22.9787 131.619 23.5573 131.619 24.248C131.619 25.592 131.115 26.6093 130.107 27.3C129.117 27.9907 127.699 28.336 125.851 28.336C124.563 28.336 123.555 28.224 122.827 28C122.099 27.7947 121.604 27.636 121.343 27.524L121.819 25.284C122.117 25.396 122.593 25.564 123.247 25.788C123.9 26.012 124.768 26.124 125.851 26.124ZM147.811 20.72C147.811 21.8773 147.643 22.9227 147.307 23.856C146.971 24.7893 146.495 25.592 145.879 26.264C145.281 26.936 144.563 27.4587 143.723 27.832C142.883 28.1867 141.968 28.364 140.979 28.364C139.989 28.364 139.075 28.1867 138.235 27.832C137.395 27.4587 136.667 26.936 136.051 26.264C135.453 25.592 134.987 24.7893 134.651 23.856C134.315 22.9227 134.147 21.8773 134.147 20.72C134.147 19.5813 134.315 18.5453 134.651 17.612C134.987 16.66 135.453 15.848 136.051 15.176C136.667 14.504 137.395 13.9907 138.235 13.636C139.075 13.2627 139.989 13.076 140.979 13.076C141.968 13.076 142.883 13.2627 143.723 13.636C144.563 13.9907 145.281 14.504 145.879 15.176C146.495 15.848 146.971 16.66 147.307 17.612C147.643 18.5453 147.811 19.5813 147.811 20.72ZM145.095 20.72C145.095 19.0773 144.721 17.78 143.975 16.828C143.247 15.8573 142.248 15.372 140.979 15.372C139.709 15.372 138.701 15.8573 137.955 16.828C137.227 17.78 136.863 19.0773 136.863 20.72C136.863 22.3627 137.227 23.6693 137.955 24.64C138.701 25.592 139.709 26.068 140.979 26.068C142.248 26.068 143.247 25.592 143.975 24.64C144.721 23.6693 145.095 22.3627 145.095 20.72ZM85.628 51.124C86.692 51.124 87.476 50.984 87.98 50.704C88.5027 50.424 88.764 49.976 88.764 49.36C88.764 48.7253 88.512 48.2213 88.008 47.848C87.504 47.4747 86.6733 47.0547 85.516 46.588C84.956 46.364 84.4147 46.14 83.892 45.916C83.388 45.6733 82.9493 45.3933 82.576 45.076C82.2027 44.7587 81.904 44.376 81.68 43.928C81.456 43.48 81.344 42.9293 81.344 42.276C81.344 40.988 81.82 39.9707 82.772 39.224C83.724 38.4587 85.0213 38.076 86.664 38.076C87.0747 38.076 87.4853 38.104 87.896 38.16C88.3067 38.1973 88.6893 38.2533 89.044 38.328C89.3987 38.384 89.7067 38.4493 89.968 38.524C90.248 38.5987 90.4627 38.664 90.612 38.72L90.136 40.96C89.856 40.8107 89.4173 40.6613 88.82 40.512C88.2227 40.344 87.504 40.26 86.664 40.26C85.936 40.26 85.3013 40.4093 84.76 40.708C84.2187 40.988 83.948 41.436 83.948 42.052C83.948 42.3693 84.004 42.6493 84.116 42.892C84.2467 43.1347 84.4333 43.3587 84.676 43.564C84.9373 43.7507 85.2547 43.928 85.628 44.096C86.0013 44.264 86.4493 44.4413 86.972 44.628C87.6627 44.8893 88.2787 45.1507 88.82 45.412C89.3613 45.6547 89.8187 45.944 90.192 46.28C90.584 46.616 90.8827 47.0267 91.088 47.512C91.2933 47.9787 91.396 48.5573 91.396 49.248C91.396 50.592 90.892 51.6093 89.884 52.3C88.8947 52.9907 87.476 53.336 85.628 53.336C84.34 53.336 83.332 53.224 82.604 53C81.876 52.7947 81.3813 52.636 81.12 52.524L81.596 50.284C81.8947 50.396 82.3707 50.564 83.024 50.788C83.6773 51.012 84.5453 51.124 85.628 51.124ZM93.9241 45.748C93.9241 44.46 94.1108 43.34 94.4841 42.388C94.8574 41.4173 95.3521 40.6147 95.9681 39.98C96.5841 39.3453 97.2934 38.8693 98.0961 38.552C98.8988 38.2347 99.7201 38.076 100.56 38.076C102.52 38.076 104.023 38.692 105.068 39.924C106.113 41.1373 106.636 42.9947 106.636 45.496C106.636 45.608 106.636 45.7573 106.636 45.944C106.636 46.112 106.627 46.2707 106.608 46.42H96.6401C96.7521 47.932 97.1908 49.08 97.9561 49.864C98.7214 50.648 99.9161 51.04 101.54 51.04C102.455 51.04 103.22 50.9653 103.836 50.816C104.471 50.648 104.947 50.4893 105.264 50.34L105.628 52.524C105.311 52.692 104.751 52.8693 103.948 53.056C103.164 53.2427 102.268 53.336 101.26 53.336C99.9908 53.336 98.8894 53.1493 97.9561 52.776C97.0414 52.384 96.2854 51.852 95.6881 51.18C95.0908 50.508 94.6428 49.7147 94.3441 48.8C94.0641 47.8667 93.9241 46.8493 93.9241 45.748ZM103.92 44.32C103.939 43.144 103.64 42.1827 103.024 41.436C102.427 40.6707 101.596 40.288 100.532 40.288C99.9348 40.288 99.4028 40.4093 98.9361 40.652C98.4881 40.876 98.1054 41.1747 97.7881 41.548C97.4708 41.9213 97.2188 42.3507 97.0321 42.836C96.8641 43.3213 96.7521 43.816 96.6961 44.32H103.92ZM119.505 51.544C119.281 51.6933 118.842 51.8893 118.189 52.132C117.554 52.356 116.807 52.468 115.949 52.468C115.071 52.468 114.241 52.328 113.457 52.048C112.691 51.768 112.019 51.3387 111.441 50.76C110.862 50.1627 110.405 49.4253 110.069 48.548C109.733 47.6707 109.565 46.6253 109.565 45.412C109.565 44.348 109.723 43.3773 110.041 42.5C110.358 41.604 110.815 40.8387 111.413 40.204C112.029 39.5507 112.775 39.0467 113.653 38.692C114.53 38.3187 115.519 38.132 116.621 38.132C117.834 38.132 118.889 38.2253 119.785 38.412C120.699 38.58 121.465 38.7387 122.081 38.888V51.88C122.081 54.12 121.502 55.744 120.345 56.752C119.187 57.76 117.433 58.264 115.081 58.264C114.166 58.264 113.298 58.1893 112.477 58.04C111.674 57.8907 110.974 57.7133 110.377 57.508L110.853 55.24C111.375 55.4453 112.01 55.6227 112.757 55.772C113.522 55.94 114.315 56.024 115.137 56.024C116.686 56.024 117.797 55.716 118.469 55.1C119.159 54.484 119.505 53.504 119.505 52.16V51.544ZM119.477 40.736C119.215 40.6613 118.861 40.596 118.413 40.54C117.983 40.4653 117.395 40.428 116.649 40.428C115.249 40.428 114.166 40.8853 113.401 41.8C112.654 42.7147 112.281 43.928 112.281 45.44C112.281 46.28 112.383 46.9987 112.589 47.596C112.813 48.1933 113.102 48.688 113.457 49.08C113.83 49.472 114.25 49.7613 114.717 49.948C115.202 50.1347 115.697 50.228 116.201 50.228C116.891 50.228 117.526 50.1347 118.105 49.948C118.683 49.7427 119.141 49.5093 119.477 49.248V40.736ZM138.156 52.58C137.559 52.7293 136.766 52.888 135.776 53.056C134.806 53.224 133.676 53.308 132.388 53.308C131.268 53.308 130.326 53.1493 129.56 52.832C128.795 52.496 128.179 52.0293 127.712 51.432C127.246 50.8347 126.91 50.1347 126.704 49.332C126.499 48.5107 126.396 47.6053 126.396 46.616V38.44H129V46.056C129 47.8293 129.28 49.0987 129.84 49.864C130.4 50.6293 131.343 51.012 132.668 51.012C132.948 51.012 133.238 51.0027 133.536 50.984C133.835 50.9653 134.115 50.9467 134.376 50.928C134.638 50.8907 134.871 50.8627 135.076 50.844C135.3 50.8067 135.459 50.7693 135.552 50.732V38.44H138.156V52.58ZM148.018 38.132C148.242 38.132 148.494 38.1507 148.774 38.188C149.073 38.2067 149.362 38.244 149.642 38.3C149.922 38.3373 150.174 38.384 150.398 38.44C150.641 38.4773 150.818 38.5147 150.93 38.552L150.482 40.82C150.277 40.7453 149.932 40.6613 149.446 40.568C148.98 40.456 148.373 40.4 147.626 40.4C147.141 40.4 146.656 40.456 146.17 40.568C145.704 40.6613 145.396 40.7267 145.246 40.764V53H142.642V39.056C143.258 38.832 144.024 38.6267 144.938 38.44C145.853 38.2347 146.88 38.132 148.018 38.132ZM166.295 45.72C166.295 46.8773 166.127 47.9227 165.791 48.856C165.455 49.7893 164.979 50.592 164.363 51.264C163.766 51.936 163.047 52.4587 162.207 52.832C161.367 53.1867 160.452 53.364 159.463 53.364C158.474 53.364 157.559 53.1867 156.719 52.832C155.879 52.4587 155.151 51.936 154.535 51.264C153.938 50.592 153.471 49.7893 153.135 48.856C152.799 47.9227 152.631 46.8773 152.631 45.72C152.631 44.5813 152.799 43.5453 153.135 42.612C153.471 41.66 153.938 40.848 154.535 40.176C155.151 39.504 155.879 38.9907 156.719 38.636C157.559 38.2627 158.474 38.076 159.463 38.076C160.452 38.076 161.367 38.2627 162.207 38.636C163.047 38.9907 163.766 39.504 164.363 40.176C164.979 40.848 165.455 41.66 165.791 42.612C166.127 43.5453 166.295 44.5813 166.295 45.72ZM163.579 45.72C163.579 44.0773 163.206 42.78 162.459 41.828C161.731 40.8573 160.732 40.372 159.463 40.372C158.194 40.372 157.186 40.8573 156.439 41.828C155.711 42.78 155.347 44.0773 155.347 45.72C155.347 47.3627 155.711 48.6693 156.439 49.64C157.186 50.592 158.194 51.068 159.463 51.068C160.732 51.068 161.731 50.592 162.459 49.64C163.206 48.6693 163.579 47.3627 163.579 45.72Z" fill="#F2F2F2"/>
</svg>
