<svg width="142" height="60" viewBox="0 0 72 30" fill="none" xmlns="http://www.w3.org/2000/svg">
<path d="M20.5957 22.5833C18.9478 23.7932 17.2975 24.6757 16.0002 25.1068C11.9168 23.75 4.3335 17.9167 4.3335 11.5C4.3335 7.95625 7.20641 5.08333 10.7502 5.08333C12.9202 5.08333 14.8393 6.16075 16.0002 7.80983C16.5919 6.96703 17.3779 6.27921 18.2918 5.80461C19.2056 5.33001 20.2204 5.0826 21.2502 5.08333C24.7939 5.08333 27.6668 7.95625 27.6668 11.5C27.6668 12.5191 27.4755 13.523 27.1378 14.4966" stroke="url(#paint0_linear_22_47)" stroke-width="1.5" stroke-linecap="round" stroke-linejoin="round"/>
<path d="M17.75 17.9167H20.0833L21.8333 15.5833L23.5833 20.25L25.3112 17.9167H27.6667" stroke="url(#paint1_linear_22_47)" stroke-width="1.5" stroke-linecap="round" stroke-linejoin="round"/>
<path d="M40.41 11.41C40.41 10.8033 40.26 10.3367 39.96 10.01C39.66 9.68333 39.26 9.52 38.76 9.52C38.48 9.52 38.26 9.53 38.1 9.55C37.9467 9.57 37.8233 9.59333 37.73 9.62V12.9C37.8433 12.9933 38.0067 13.0833 38.22 13.17C38.4333 13.2567 38.6667 13.3 38.92 13.3C39.1867 13.3 39.4133 13.2533 39.6 13.16C39.7933 13.06 39.95 12.9267 40.07 12.76C40.19 12.5867 40.2767 12.3867 40.33 12.16C40.3833 11.9267 40.41 11.6767 40.41 11.41ZM41.38 11.41C41.38 11.8033 41.3267 12.1667 41.22 12.5C41.12 12.8333 40.97 13.12 40.77 13.36C40.57 13.6 40.3233 13.7867 40.03 13.92C39.7433 14.0533 39.4133 14.12 39.04 14.12C38.74 14.12 38.4733 14.08 38.24 14C38.0133 13.92 37.8433 13.8433 37.73 13.77V15.85H36.8V8.96C37.02 8.90667 37.2933 8.85 37.62 8.79C37.9533 8.72333 38.3367 8.69 38.77 8.69C39.17 8.69 39.53 8.75333 39.85 8.88C40.17 9.00667 40.4433 9.18667 40.67 9.42C40.8967 9.65333 41.07 9.94 41.19 10.28C41.3167 10.6133 41.38 10.99 41.38 11.41ZM46.8287 13.85C46.6153 13.9033 46.332 13.96 45.9787 14.02C45.632 14.08 45.2287 14.11 44.7687 14.11C44.3687 14.11 44.032 14.0533 43.7587 13.94C43.4853 13.82 43.2653 13.6533 43.0987 13.44C42.932 13.2267 42.812 12.9767 42.7387 12.69C42.6653 12.3967 42.6287 12.0733 42.6287 11.72V8.8H43.5587V11.52C43.5587 12.1533 43.6587 12.6067 43.8587 12.88C44.0587 13.1533 44.3953 13.29 44.8687 13.29C44.9687 13.29 45.072 13.2867 45.1787 13.28C45.2853 13.2733 45.3853 13.2667 45.4787 13.26C45.572 13.2467 45.6553 13.2367 45.7287 13.23C45.8087 13.2167 45.8653 13.2033 45.8987 13.19V8.8H46.8287V13.85ZM49.9909 14.1C49.4175 14.0867 49.0109 13.9633 48.7709 13.73C48.5309 13.4967 48.4109 13.1333 48.4109 12.64V6.4L49.3409 6.24V12.49C49.3409 12.6433 49.3542 12.77 49.3809 12.87C49.4075 12.97 49.4509 13.05 49.5109 13.11C49.5709 13.17 49.6509 13.2167 49.7509 13.25C49.8509 13.2767 49.9742 13.3 50.1209 13.32L49.9909 14.1ZM52.3752 13.33C52.7552 13.33 53.0352 13.28 53.2152 13.18C53.4019 13.08 53.4952 12.92 53.4952 12.7C53.4952 12.4733 53.4052 12.2933 53.2252 12.16C53.0452 12.0267 52.7486 11.8767 52.3352 11.71C52.1352 11.63 51.9419 11.55 51.7552 11.47C51.5752 11.3833 51.4186 11.2833 51.2852 11.17C51.1519 11.0567 51.0452 10.92 50.9652 10.76C50.8852 10.6 50.8452 10.4033 50.8452 10.17C50.8452 9.71 51.0152 9.34667 51.3552 9.08C51.6952 8.80667 52.1586 8.67 52.7452 8.67C52.8919 8.67 53.0386 8.68 53.1852 8.7C53.3319 8.71333 53.4686 8.73333 53.5952 8.76C53.7219 8.78 53.8319 8.80333 53.9252 8.83C54.0252 8.85667 54.1019 8.88 54.1552 8.9L53.9852 9.7C53.8852 9.64667 53.7286 9.59333 53.5152 9.54C53.3019 9.48 53.0452 9.45 52.7452 9.45C52.4852 9.45 52.2586 9.50333 52.0652 9.61C51.8719 9.71 51.7752 9.87 51.7752 10.09C51.7752 10.2033 51.7952 10.3033 51.8352 10.39C51.8819 10.4767 51.9486 10.5567 52.0352 10.63C52.1286 10.6967 52.2419 10.76 52.3752 10.82C52.5086 10.88 52.6686 10.9433 52.8552 11.01C53.1019 11.1033 53.3219 11.1967 53.5152 11.29C53.7086 11.3767 53.8719 11.48 54.0052 11.6C54.1452 11.72 54.2519 11.8667 54.3252 12.04C54.3986 12.2067 54.4352 12.4133 54.4352 12.66C54.4352 13.14 54.2552 13.5033 53.8952 13.75C53.5419 13.9967 53.0352 14.12 52.3752 14.12C51.9152 14.12 51.5552 14.08 51.2952 14C51.0352 13.9267 50.8586 13.87 50.7652 13.83L50.9352 13.03C51.0419 13.07 51.2119 13.13 51.4452 13.21C51.6786 13.29 51.9886 13.33 52.3752 13.33ZM60.2181 11.4C60.2181 11.8133 60.1581 12.1867 60.0381 12.52C59.9181 12.8533 59.7481 13.14 59.5281 13.38C59.3148 13.62 59.0581 13.8067 58.7581 13.94C58.4581 14.0667 58.1315 14.13 57.7781 14.13C57.4248 14.13 57.0981 14.0667 56.7981 13.94C56.4981 13.8067 56.2381 13.62 56.0181 13.38C55.8048 13.14 55.6381 12.8533 55.5181 12.52C55.3981 12.1867 55.3381 11.8133 55.3381 11.4C55.3381 10.9933 55.3981 10.6233 55.5181 10.29C55.6381 9.95 55.8048 9.66 56.0181 9.42C56.2381 9.18 56.4981 8.99667 56.7981 8.87C57.0981 8.73667 57.4248 8.67 57.7781 8.67C58.1315 8.67 58.4581 8.73667 58.7581 8.87C59.0581 8.99667 59.3148 9.18 59.5281 9.42C59.7481 9.66 59.9181 9.95 60.0381 10.29C60.1581 10.6233 60.2181 10.9933 60.2181 11.4ZM59.2481 11.4C59.2481 10.8133 59.1148 10.35 58.8481 10.01C58.5881 9.66333 58.2315 9.49 57.7781 9.49C57.3248 9.49 56.9648 9.66333 56.6981 10.01C56.4381 10.35 56.3081 10.8133 56.3081 11.4C56.3081 11.9867 56.4381 12.4533 56.6981 12.8C56.9648 13.14 57.3248 13.31 57.7781 13.31C58.2315 13.31 58.5881 13.14 58.8481 12.8C59.1148 12.4533 59.2481 11.9867 59.2481 11.4ZM38.01 22.33C38.39 22.33 38.67 22.28 38.85 22.18C39.0367 22.08 39.13 21.92 39.13 21.7C39.13 21.4733 39.04 21.2933 38.86 21.16C38.68 21.0267 38.3833 20.8767 37.97 20.71C37.77 20.63 37.5767 20.55 37.39 20.47C37.21 20.3833 37.0533 20.2833 36.92 20.17C36.7867 20.0567 36.68 19.92 36.6 19.76C36.52 19.6 36.48 19.4033 36.48 19.17C36.48 18.71 36.65 18.3467 36.99 18.08C37.33 17.8067 37.7933 17.67 38.38 17.67C38.5267 17.67 38.6733 17.68 38.82 17.7C38.9667 17.7133 39.1033 17.7333 39.23 17.76C39.3567 17.78 39.4667 17.8033 39.56 17.83C39.66 17.8567 39.7367 17.88 39.79 17.9L39.62 18.7C39.52 18.6467 39.3633 18.5933 39.15 18.54C38.9367 18.48 38.68 18.45 38.38 18.45C38.12 18.45 37.8933 18.5033 37.7 18.61C37.5067 18.71 37.41 18.87 37.41 19.09C37.41 19.2033 37.43 19.3033 37.47 19.39C37.5167 19.4767 37.5833 19.5567 37.67 19.63C37.7633 19.6967 37.8767 19.76 38.01 19.82C38.1433 19.88 38.3033 19.9433 38.49 20.01C38.7367 20.1033 38.9567 20.1967 39.15 20.29C39.3433 20.3767 39.5067 20.48 39.64 20.6C39.78 20.72 39.8867 20.8667 39.96 21.04C40.0333 21.2067 40.07 21.4133 40.07 21.66C40.07 22.14 39.89 22.5033 39.53 22.75C39.1767 22.9967 38.67 23.12 38.01 23.12C37.55 23.12 37.19 23.08 36.93 23C36.67 22.9267 36.4933 22.87 36.4 22.83L36.57 22.03C36.6767 22.07 36.8467 22.13 37.08 22.21C37.3133 22.29 37.6233 22.33 38.01 22.33ZM40.9729 20.41C40.9729 19.95 41.0396 19.55 41.1729 19.21C41.3062 18.8633 41.4829 18.5767 41.7029 18.35C41.9229 18.1233 42.1762 17.9533 42.4629 17.84C42.7496 17.7267 43.0429 17.67 43.3429 17.67C44.0429 17.67 44.5796 17.89 44.9529 18.33C45.3262 18.7633 45.5129 19.4267 45.5129 20.32C45.5129 20.36 45.5129 20.4133 45.5129 20.48C45.5129 20.54 45.5096 20.5967 45.5029 20.65H41.9429C41.9829 21.19 42.1396 21.6 42.4129 21.88C42.6862 22.16 43.1129 22.3 43.6929 22.3C44.0196 22.3 44.2929 22.2733 44.5129 22.22C44.7396 22.16 44.9096 22.1033 45.0229 22.05L45.1529 22.83C45.0396 22.89 44.8396 22.9533 44.5529 23.02C44.2729 23.0867 43.9529 23.12 43.5929 23.12C43.1396 23.12 42.7462 23.0533 42.4129 22.92C42.0862 22.78 41.8162 22.59 41.6029 22.35C41.3896 22.11 41.2296 21.8267 41.1229 21.5C41.0229 21.1667 40.9729 20.8033 40.9729 20.41ZM44.5429 19.9C44.5496 19.48 44.4429 19.1367 44.2229 18.87C44.0096 18.5967 43.7129 18.46 43.3329 18.46C43.1196 18.46 42.9296 18.5033 42.7629 18.59C42.6029 18.67 42.4662 18.7767 42.3529 18.91C42.2396 19.0433 42.1496 19.1967 42.0829 19.37C42.0229 19.5433 41.9829 19.72 41.9629 19.9H44.5429ZM50.1088 22.48C50.0288 22.5333 49.8722 22.6033 49.6388 22.69C49.4122 22.77 49.1455 22.81 48.8388 22.81C48.5255 22.81 48.2288 22.76 47.9488 22.66C47.6755 22.56 47.4355 22.4067 47.2288 22.2C47.0222 21.9867 46.8588 21.7233 46.7388 21.41C46.6188 21.0967 46.5588 20.7233 46.5588 20.29C46.5588 19.91 46.6155 19.5633 46.7288 19.25C46.8422 18.93 47.0055 18.6567 47.2188 18.43C47.4388 18.1967 47.7055 18.0167 48.0188 17.89C48.3322 17.7567 48.6855 17.69 49.0788 17.69C49.5122 17.69 49.8888 17.7233 50.2088 17.79C50.5355 17.85 50.8088 17.9067 51.0288 17.96V22.6C51.0288 23.4 50.8222 23.98 50.4088 24.34C49.9955 24.7 49.3688 24.88 48.5288 24.88C48.2022 24.88 47.8922 24.8533 47.5988 24.8C47.3122 24.7467 47.0622 24.6833 46.8488 24.61L47.0188 23.8C47.2055 23.8733 47.4322 23.9367 47.6988 23.99C47.9722 24.05 48.2555 24.08 48.5488 24.08C49.1022 24.08 49.4988 23.97 49.7388 23.75C49.9855 23.53 50.1088 23.18 50.1088 22.7V22.48ZM50.0988 18.62C50.0055 18.5933 49.8788 18.57 49.7188 18.55C49.5655 18.5233 49.3555 18.51 49.0888 18.51C48.5888 18.51 48.2022 18.6733 47.9288 19C47.6622 19.3267 47.5288 19.76 47.5288 20.3C47.5288 20.6 47.5655 20.8567 47.6388 21.07C47.7188 21.2833 47.8222 21.46 47.9488 21.6C48.0822 21.74 48.2322 21.8433 48.3988 21.91C48.5722 21.9767 48.7488 22.01 48.9288 22.01C49.1755 22.01 49.4022 21.9767 49.6088 21.91C49.8155 21.8367 49.9788 21.7533 50.0988 21.66V18.62ZM56.7701 22.85C56.5567 22.9033 56.2734 22.96 55.9201 23.02C55.5734 23.08 55.1701 23.11 54.7101 23.11C54.3101 23.11 53.9734 23.0533 53.7001 22.94C53.4267 22.82 53.2067 22.6533 53.0401 22.44C52.8734 22.2267 52.7534 21.9767 52.6801 21.69C52.6067 21.3967 52.5701 21.0733 52.5701 20.72V17.8H53.5001V20.52C53.5001 21.1533 53.6001 21.6067 53.8001 21.88C54.0001 22.1533 54.3367 22.29 54.8101 22.29C54.9101 22.29 55.0134 22.2867 55.1201 22.28C55.2267 22.2733 55.3267 22.2667 55.4201 22.26C55.5134 22.2467 55.5967 22.2367 55.6701 22.23C55.7501 22.2167 55.8067 22.2033 55.8401 22.19V17.8H56.7701V22.85ZM60.2923 17.69C60.3723 17.69 60.4623 17.6967 60.5623 17.71C60.6689 17.7167 60.7723 17.73 60.8723 17.75C60.9723 17.7633 61.0623 17.78 61.1423 17.8C61.2289 17.8133 61.2923 17.8267 61.3323 17.84L61.1723 18.65C61.0989 18.6233 60.9756 18.5933 60.8023 18.56C60.6356 18.52 60.4189 18.5 60.1523 18.5C59.9789 18.5 59.8056 18.52 59.6323 18.56C59.4656 18.5933 59.3556 18.6167 59.3023 18.63V23H58.3723V18.02C58.5923 17.94 58.8656 17.8667 59.1923 17.8C59.5189 17.7267 59.8856 17.69 60.2923 17.69ZM66.8197 20.4C66.8197 20.8133 66.7597 21.1867 66.6397 21.52C66.5197 21.8533 66.3497 22.14 66.1297 22.38C65.9164 22.62 65.6597 22.8067 65.3597 22.94C65.0597 23.0667 64.733 23.13 64.3797 23.13C64.0264 23.13 63.6997 23.0667 63.3997 22.94C63.0997 22.8067 62.8397 22.62 62.6197 22.38C62.4064 22.14 62.2397 21.8533 62.1197 21.52C61.9997 21.1867 61.9397 20.8133 61.9397 20.4C61.9397 19.9933 61.9997 19.6233 62.1197 19.29C62.2397 18.95 62.4064 18.66 62.6197 18.42C62.8397 18.18 63.0997 17.9967 63.3997 17.87C63.6997 17.7367 64.0264 17.67 64.3797 17.67C64.733 17.67 65.0597 17.7367 65.3597 17.87C65.6597 17.9967 65.9164 18.18 66.1297 18.42C66.3497 18.66 66.5197 18.95 66.6397 19.29C66.7597 19.6233 66.8197 19.9933 66.8197 20.4ZM65.8497 20.4C65.8497 19.8133 65.7164 19.35 65.4497 19.01C65.1897 18.6633 64.833 18.49 64.3797 18.49C63.9264 18.49 63.5664 18.6633 63.2997 19.01C63.0397 19.35 62.9097 19.8133 62.9097 20.4C62.9097 20.9867 63.0397 21.4533 63.2997 21.8C63.5664 22.14 63.9264 22.31 64.3797 22.31C64.833 22.31 65.1897 22.14 65.4497 21.8C65.7164 21.4533 65.8497 20.9867 65.8497 20.4Z" fill="url(#paint2_linear_22_47)"/>
<defs>
<linearGradient id="paint0_linear_22_47" x1="4.3335" y1="15.0951" x2="27.6668" y2="15.0951" gradientUnits="userSpaceOnUse">
<stop stop-color="#1D976C"/>
<stop offset="1" stop-color="#93F9B9"/>
</linearGradient>
<linearGradient id="paint1_linear_22_47" x1="17.75" y1="17.9167" x2="27.6667" y2="17.9167" gradientUnits="userSpaceOnUse">
<stop stop-color="#1D976C"/>
<stop offset="1" stop-color="#93F9B9"/>
</linearGradient>
<linearGradient id="paint2_linear_22_47" x1="36" y1="15" x2="69" y2="15" gradientUnits="userSpaceOnUse">
<stop stop-color="#1D976C"/>
<stop offset="1" stop-color="#93F9B9"/>
</linearGradient>
</defs>
</svg>
